<?xml version="1.0" standalone="no"?>
<!DOCTYPE svg PUBLIC "-//W3C//DTD SVG 20010904//EN"
 "http://www.w3.org/TR/2001/REC-SVG-20010904/DTD/svg10.dtd">
<svg version="1.0" xmlns="http://www.w3.org/2000/svg"
 width="192.000000pt" height="192.000000pt" viewBox="0 0 192.000000 192.000000"
 preserveAspectRatio="xMidYMid meet">
<metadata>
Created by potrace 1.16, written by Peter Selinger 2001-2019
</metadata>
<g transform="translate(0.000000,192.000000) scale(0.100000,-0.100000)"
fill="#000000" stroke="none">
<path d="M0 960 l0 -960 960 0 960 0 0 960 0 960 -960 0 -960 0 0 -960z m1061
849 c6 -13 9 -50 7 -91 -4 -81 -18 -98 -81 -98 -21 0 -47 -5 -57 -10 -22 -12
-40 -68 -40 -125 0 -52 -14 -65 -66 -65 -31 0 -51 -7 -71 -24 -26 -23 -28 -31
-32 -110 -4 -109 10 -136 70 -136 29 0 47 -7 64 -25 22 -22 25 -32 25 -105 0
-73 -3 -83 -25 -105 -17 -18 -35 -25 -61 -25 -56 0 -74 -22 -74 -90 0 -68 15
-117 40 -130 10 -6 36 -10 57 -10 57 0 66 -11 74 -85 9 -91 30 -118 97 -125
28 -3 57 -11 64 -18 7 -7 14 -43 16 -81 5 -86 -13 -111 -81 -111 -80 0 -84 4
-90 80 -3 38 -11 78 -17 90 -14 26 -49 40 -100 40 -49 0 -60 18 -60 95 0 49
-4 60 -29 86 -23 22 -39 29 -69 29 -22 0 -45 6 -51 14 -7 8 -15 47 -18 88 -8
104 -17 115 -99 120 -88 5 -94 14 -94 140 0 120 11 138 90 138 79 0 95 23 103
153 3 37 10 73 16 81 6 7 32 16 57 19 65 7 86 32 91 104 7 100 8 103 52 103
90 0 119 30 128 130 7 83 4 80 82 80 61 0 72 -3 82 -21z m199 -214 c7 -8 14
-36 17 -63 2 -26 6 -57 9 -70 6 -28 57 -52 113 -52 26 0 41 -5 45 -16 11 -29
7 -179 -6 -192 -7 -7 -38 -12 -69 -12 -72 0 -89 19 -89 100 0 82 -16 100 -90
100 -79 0 -94 -20 -88 -119 4 -81 24 -111 72 -111 75 0 96 -28 96 -128 0 -48
21 -96 45 -106 9 -3 38 -6 63 -6 74 0 77 -4 77 -124 0 -57 -3 -108 -8 -112 -4
-4 -35 -11 -68 -15 -34 -4 -68 -14 -77 -22 -9 -9 -17 -44 -21 -87 -5 -46 -12
-75 -21 -80 -8 -6 -42 -10 -74 -10 -79 0 -96 15 -96 85 0 75 -25 105 -89 105
-76 0 -86 13 -86 113 0 56 5 90 14 101 18 21 113 22 134 2 8 -8 18 -46 22 -83
9 -89 22 -103 95 -103 68 0 80 11 87 74 12 104 -18 156 -91 156 -27 0 -48 6
-56 15 -7 9 -16 52 -20 97 -6 72 -11 85 -34 105 -21 18 -39 23 -81 23 -69 0
-75 11 -75 125 0 113 7 125 71 125 28 0 59 5 69 10 22 12 40 67 40 122 0 54
20 68 94 68 44 0 67 -5 76 -15z m352 -482 c14 -12 18 -31 18 -81 0 -82 -15
-102 -77 -102 -41 0 -45 2 -60 37 -19 46 -13 116 12 143 22 25 81 26 107 3z"/>
</g>
</svg>
